<svg xmlns="http://www.w3.org/2000/svg" viewBox="0 0 48 48"><polygon fill="#f5bc00" points="42,43 6,43 6,15.056 24,1.453 42,15.025"/><polygon fill="#f55376" points="3.675,24.333 0.042,19.559 24,1.453 47.958,19.518 44.378,24.333 24.021,8.926"/><polygon fill="#eb0000" points="6,22.573 24.021,8.926 42,22.533 42,15.025 24,1.453 6,15.056"/><path fill="#a64aff" d="M15.5,20c1.381,0,2.5,1.12,2.5,2.5c0,1.381-1.119,2.5-2.5,2.5S13,23.881,13,22.5	C13,21.12,14.119,20,15.5,20"/><path fill="#a64aff" d="M15.5,31c1.381,0,2.5,1.12,2.5,2.5c0,1.381-1.119,2.5-2.5,2.5S13,34.881,13,33.5	C13,32.12,14.119,31,15.5,31"/><path fill="#6c19ff" d="M34,26.25H19V20h15V26.25z"/><path fill="#6c19ff" d="M34,37.25H19V31h15V37.25z"/><path fill="#2100c4" d="M34,28H13v-3h21V28z"/><path fill="#2100c4" d="M34,39H13v-3h21V39z"/></svg>
