<svg xmlns="http://www.w3.org/2000/svg" viewBox="0 0 68 68"><circle cx="34" cy="34" r="32" fill="#ffd80c"/><path fill="#ffbe00" d="M66,34c0,17.6699219-14.3300781,32-32,32c-10.6201172,0-20.0300293-5.1699219-25.8500977-13.1401367 C13.4399414,56.7197266,19.9499512,59,27,59c17.6599121,0,32-14.3398438,32-32 c0-7.0600586-2.2800293-13.5800781-6.1501465-18.8603516C60.8198242,13.9501953,66,23.3701172,66,34z"/><path fill="#ffa300" d="M60.3798828,34c0,13.9101563-10.7700195,25.3100586-24.4299316,26.2998047 C35.3098145,60.3598633,34.6599121,60.3798828,34,60.3798828c-0.6601563,0-1.3100586-0.0200195-1.9501953-0.0800781 C18.3898926,59.3100586,7.619873,47.9101563,7.619873,34S18.3898926,8.6899414,32.0498047,7.7001953 C32.6899414,7.6396484,33.3398438,7.6201172,34,7.6201172c0.6599121,0,1.3098145,0.0195313,1.9499512,0.0800781 C49.6098633,8.6899414,60.3798828,20.0898438,60.3798828,34z"/><path fill="#ffbe00" d="M56.2597656,34c0,0.6601563-0.0297852,1.3100586-0.0898438,1.9501953 c-0.3999023,4.6796875-2.2600098,8.949707-5.1201172,12.3398438c-0.829834,1.0097656-1.7597656,1.9296875-2.7597656,2.7597656 c-3.4001465,2.8603516-7.670166,4.7099609-12.3400879,5.1103516C35.3098145,56.2197266,34.6599121,56.25,34,56.25 c-0.6601563,0-1.3100586-0.0302734-1.9501953-0.0898438c-4.6799316-0.4003906-8.9399414-2.25-12.3398438-5.1103516 c-1-0.8300781-1.9301758-1.75-2.7600098-2.7597656c-2.8601074-3.3901367-4.7102051-7.6601563-5.1101074-12.3398438 C11.7797852,35.3100586,11.75,34.6601563,11.75,34s0.0297852-1.3100586,0.0898438-1.9501953 c0.3999023-4.6796875,2.25-8.9399414,5.1101074-12.3398438c0.829834-1,1.7600098-1.9301758,2.7600098-2.7597656 c3.3999023-2.8603516,7.6599121-4.7104492,12.3398438-5.1103516C32.6899414,11.7797852,33.3398438,11.75,34,11.75 c0.6599121,0,1.3098145,0.0297852,1.9499512,0.0898438c4.6799316,0.3999023,8.9399414,2.2602539,12.3400879,5.1103516h0.0097656 c1,0.8295898,1.920166,1.75,2.7600098,2.75c2.8500977,3.3999023,4.7102051,7.6699219,5.1101074,12.3496094 C56.2299805,32.6899414,56.2597656,33.3398438,56.2597656,34z"/><path fill="#ffa300" d="M35.9499512,11.8398438v44.3203125C35.3098145,56.2197266,34.6599121,56.25,34,56.25 c-0.6601563,0-1.3100586-0.0302734-1.9501953-0.0898438V11.8398438C32.6899414,11.7797852,33.3398438,11.75,34,11.75 C34.6599121,11.75,35.3098145,11.7797852,35.9499512,11.8398438z"/><path fill="#ffa300" d="M51.0598145,19.7001953L19.7099609,51.0498047c-1-0.8300781-1.9301758-1.75-2.7600098-2.7597656 l12.3400879-12.3398438L31.2397461,34l0.8100586-0.8100586l1.1401367-1.1401367l2.7600098-2.7597656l12.3400879-12.3398438 h0.0097656C49.2998047,17.7797852,50.2199707,18.7001953,51.0598145,19.7001953z"/><path fill="#ffa300" d="M56.2597656,34c0,0.6601563-0.0297852,1.3100586-0.0898438,1.9501953H11.8398438 C11.7797852,35.3100586,11.75,34.6601563,11.75,34s0.0297852-1.3100586,0.0898438-1.9501953h44.3300781 C56.2299805,32.6899414,56.2597656,33.3398438,56.2597656,34z"/><path fill="#ffa300" d="M51.0498047,48.2900391c-0.829834,1.0097656-1.7597656,1.9296875-2.7597656,2.7597656L35.9499512,38.7099609 L34,36.7597656l-0.8100586-0.8095703l-1.1401367-1.1401367L31.2397461,34l-1.949707-1.9501953L16.9499512,19.7099609 c0.829834-1,1.7600098-1.9301758,2.7600098-2.7597656l12.3398438,12.3398438L34,31.2397461l4.7099609,4.7104492 L51.0498047,48.2900391z"/><path fill="#ffbe00" d="M41.0048828,34c0,3.6937332-2.8598938,6.72089-6.4871788,6.9837074 c-0.1699829,0.0159492-0.3425598,0.0212669-0.5177956,0.0212669c-0.1752968,0-0.3478737-0.0053177-0.5178566-0.0212669 C29.8547688,40.72089,26.994873,37.6937332,26.994873,34s2.8598957-6.7208881,6.4871788-6.9837074 c0.1699829-0.0160789,0.3425598-0.021265,0.5178566-0.021265c0.1752357,0,0.3478127,0.0051861,0.5177956,0.021265 C38.144989,27.2791119,41.0048828,30.3062668,41.0048828,34z"/></svg>
