<svg xmlns="http://www.w3.org/2000/svg" viewBox="0 0 50 50"><path d="M 37.050781 20.1875 C 33.882813 20.1875 31.242188 21.695313 28.730469 23.324219 C 30.757813 20.175781 33.191406 17.003906 33.191406 12.929688 C 33.191406 8.40625 29.519531 4.738281 25 4.738281 C 20.480469 4.738281 16.8125 8.410156 16.8125 12.929688 C 16.8125 16.96875 19.253906 20.148438 21.285156 23.308594 C 18.78125 21.683594 16.140625 20.1875 12.949219 20.1875 C 8.429688 20.1875 4.761719 23.855469 4.761719 28.386719 C 4.761719 32.90625 8.433594 36.574219 12.949219 36.574219 C 16.726563 36.574219 19.75 34.441406 22.707031 32.507813 L 18.679688 46.046875 C 22.890625 45.292969 27.144531 45.328125 31.320313 46.046875 C 31.320313 46.046875 29.105469 38.605469 27.300781 32.527344 C 30.238281 34.457031 33.253906 36.574219 37.050781 36.574219 C 41.570313 36.574219 45.238281 32.90625 45.238281 28.386719 C 45.238281 23.859375 41.566406 20.1875 37.050781 20.1875 Z"/></svg>
